<?xml version="1.0" encoding="iso-8859-1"?>
<!-- Generator: Adobe Illustrator 17.1.0, SVG Export Plug-In . SVG Version: 6.00 Build 0)  -->
<!DOCTYPE svg PUBLIC "-//W3C//DTD SVG 1.1//EN" "http://www.w3.org/Graphics/SVG/1.1/DTD/svg11.dtd">
<svg version="1.1" id="Capa_1" xmlns="http://www.w3.org/2000/svg" xmlns:xlink="http://www.w3.org/1999/xlink" x="0px" y="0px"
	 viewBox="0 0 414.953 414.953" style="enable-background:new 0 0 414.953 414.953;" xml:space="preserve">
<g>
	<path d="M31.542,203.614c7.45,4.774,15.894,10.186,32.136,10.186c16.241,0,24.684-5.411,32.134-10.186
		c6.543-4.193,12.194-7.814,24.041-7.814c11.847,0,17.498,3.621,24.041,7.814c7.45,4.774,15.893,10.186,32.135,10.186
		c16.242,0,24.687-5.411,32.137-10.186c6.543-4.193,12.194-7.814,24.042-7.814c11.848,0,17.499,3.621,24.042,7.814
		c7.45,4.774,15.894,10.186,32.135,10.186c16.243,0,24.689-5.411,32.139-10.186c6.545-4.193,12.197-7.814,24.047-7.814
		c11.85,0,17.501,3.621,24.046,7.814c7.45,4.774,15.896,10.186,32.138,10.186c4.143,0,7.5-3.357,7.5-7.5c0-4.143-3.357-7.5-7.5-7.5
		c-11.85,0-17.513-3.603-24.046-7.814c-0.981-0.633-1.462-2.579-1.581-3.443c-0.251-1.821-0.583-3.568-0.985-5.096l-11.673-44.238
		c-1.403-5.318-5.731-12.854-9.618-16.745l-11.431-11.446c-3.887-3.892-7.066-11.576-7.066-17.076v-6.231
		c0-5.5-3.075-13.285-6.833-17.302l-32.685-34.924c-3.758-4.017-8.95-3.331-11.539,1.521L268.97,62.868
		c-2.589,4.853-7.164,5.054-10.168,0.446l-32.201-49.388c-3.004-4.607-8.379-4.95-11.944-0.763l-24.243,28.479
		c-3.565,4.188-10.558,5.706-15.539,3.374l-8.684-4.064c-4.981-2.332-12.765-1.69-17.297,1.426L113.66,66.605
		c-4.532,3.116-9.84,9.872-11.795,15.013l-12.974,34.118c-1.955,5.141-8.034,9.78-13.508,10.312l-0.824,0.079
		c-5.474,0.531-12.002,4.972-14.504,9.869l-23.368,45.715c-0.558,1.093-1.103,2.325-1.615,3.631
		c-0.294,0.75-1.283,2.136-3.073,1.092c-6.362-3.65-12.009-5.634-24.499-5.634c-4.142,0-7.5,3.357-7.5,7.5
		c0,4.143,3.358,7.5,7.5,7.5C19.348,195.8,24.999,199.421,31.542,203.614z M69.674,150.135c2.503-4.897,7.784-9.218,11.735-9.601
		c3.951-0.382,10.671,2.162,15.13,5.382l16.66,12.032c4.459,3.22,10.083,3.118,12.498-0.226c2.415-3.344,0.742-8.715-3.717-11.935
		l-14.229-10.276c-4.459-3.22-6.508-10.061-4.553-15.201l11.022-28.985c1.955-5.141,7.263-11.896,11.795-15.013l24.297-16.708
		c4.532-3.116,12.315-3.758,17.297-1.426l11.268,5.275c4.981,2.332,11.974,0.813,15.539-3.374l18.644-21.9
		c3.565-4.188,8.94-3.845,11.944,0.763l25.869,39.679c3.004,4.607,3.399,12.377,0.88,17.265l-3.755,7.281
		c-2.52,4.889-1.582,10.436,2.084,12.325c3.666,1.89,8.729-0.563,11.249-5.452l10.562-20.486c2.52-4.888,6.701-12.858,9.289-17.711
		l5.484-10.283c2.588-4.853,7.781-5.538,11.539-1.522l14.314,15.295c3.758,4.016,6.833,11.801,6.833,17.301v6.515
		c0,5.5,3.18,13.185,7.066,17.076l12.959,12.977c3.887,3.892,8.215,11.427,9.618,16.745l8.709,33.007
		c0.958,3.274-1.106,3.001-2.181,2.801c-3.225-0.601-6.834-0.954-10.955-0.954c-16.243,0-24.689,5.411-32.139,10.186
		c-6.545,4.193-12.197,7.814-24.047,7.814c-11.847,0-17.498-3.621-24.041-7.814c-7.45-4.774-15.894-10.186-32.136-10.186
		c-16.241,0-24.686,5.411-32.136,10.186c-6.543,4.193-12.194,7.814-24.043,7.814c-11.847,0-17.498-3.621-24.041-7.814
		c-7.45-4.774-15.893-10.186-32.135-10.186c-16.241,0-24.685,5.411-32.135,10.186c-6.543,4.193-12.194,7.814-24.04,7.814
		c-7.938,0-9.945-0.717-14.452-3.051c-2.334-1.083-1.895-2.672-1.322-3.552c0.815-1.256,1.546-2.497,2.139-3.658L69.674,150.135z"/>
	<path d="M407.453,249.328c-11.849,0-17.501-3.621-24.046-7.815c-7.45-4.774-15.896-10.185-32.139-10.185
		c-16.243,0-24.689,5.411-32.139,10.185c-6.545,4.193-12.197,7.815-24.046,7.815c-11.848,0-17.499-3.621-24.042-7.815
		c-7.45-4.774-15.893-10.185-32.135-10.185c-16.242,0-24.687,5.411-32.137,10.185c-6.543,4.193-12.194,7.815-24.042,7.815
		c-11.847,0-17.498-3.621-24.041-7.815c-7.45-4.774-15.894-10.185-32.135-10.185s-24.685,5.411-32.135,10.185
		c-6.543,4.193-12.194,7.815-24.041,7.815c-11.848,0-17.499-3.621-24.042-7.815c-7.45-4.774-15.894-10.185-32.136-10.185
		c-4.142,0-7.5,3.357-7.5,7.5c0,4.143,3.358,7.5,7.5,7.5c11.848,0,17.499,3.621,24.043,7.814c5.571,3.57,11.709,7.489,21.24,9.239
		c1.417,0.261,4.537,2.909,7.84,8.619l15.146,27.832c2.629,4.83,8.907,9.183,13.951,9.671c5.044,0.488,11.771,4.56,14.947,9.05
		l15.785,22.305c3.177,4.489,8.712,11.573,12.3,15.742l17.952,20.861c3.588,4.168,10.599,5.671,15.58,3.34l5.349-2.504
		c4.981-2.332,11.974-0.814,15.539,3.374l15.808,18.568c3.566,4.189,10.562,5.715,15.548,3.394l31.029-14.449
		c4.986-2.321,11.272-8.143,13.968-12.936l21.961-39.051c2.696-4.794,8.082-11.9,11.968-15.792l7.967-7.978
		c3.886-3.892,9.159-11.06,11.719-15.928l21.493-40.887c1.158-2.203,2.187-5.008,3.161-7.778c0.609-1.732,2.072-2.507,2.776-2.507
		c11.85,0,17.502,3.622,24.047,7.815c7.45,4.773,15.896,10.185,32.138,10.185c4.143,0,7.5-3.357,7.5-7.5
		C414.953,252.685,411.596,249.328,407.453,249.328z M311.617,288.51c-2.56,4.868-7.833,12.036-11.719,15.928l-7.813,7.823
		c-3.886,3.892-9.272,10.998-11.967,15.792l-20.604,36.635c-2.695,4.794-8.98,10.615-13.967,12.936l-16.303,7.592
		c-4.986,2.321-11.982,0.794-15.548-3.394l-15.823-18.586c-3.565-4.188-10.558-5.706-15.539-3.375l-5.413,2.534
		c-4.982,2.332-11.994,0.83-15.585-3.336l-9.845-11.422c-3.591-4.166-9.128-11.248-12.306-15.738l-19.543-27.615
		c-3.178-4.489-9.658-8.538-14.402-8.997c-4.744-0.459-10.776-4.788-13.405-9.618l-11.339-20.838
		c-0.771-1.29,0.708-1.435,1.382-1.566c9.181-1.805,15.181-5.629,20.632-9.122c6.543-4.193,12.194-7.814,24.041-7.814
		s17.498,3.621,24.041,7.814c7.45,4.774,15.893,10.186,32.135,10.186c16.241,0,24.685-5.411,32.136-10.186
		c6.543-4.193,12.194-7.814,24.043-7.814c11.847,0,17.498,3.621,24.041,7.814c7.45,4.774,15.895,10.186,32.136,10.186
		c16.242,0,24.688-5.411,32.138-10.185c0.384-0.246,0.765-0.49,1.145-0.731c0.845-0.537,2.423-1.56,0.836,1.644L311.617,288.51z"/>
</g>
<g>
</g>
<g>
</g>
<g>
</g>
<g>
</g>
<g>
</g>
<g>
</g>
<g>
</g>
<g>
</g>
<g>
</g>
<g>
</g>
<g>
</g>
<g>
</g>
<g>
</g>
<g>
</g>
<g>
</g>
</svg>
