<?xml version="1.0" standalone="no"?>
<!DOCTYPE svg PUBLIC "-//W3C//DTD SVG 20010904//EN"
 "http://www.w3.org/TR/2001/REC-SVG-20010904/DTD/svg10.dtd">
<svg version="1.0" xmlns="http://www.w3.org/2000/svg"
 width="512.000000pt" height="512.000000pt" viewBox="0 0 512.000000 512.000000"
 preserveAspectRatio="xMidYMid meet">
<metadata>
Created by potrace 1.11, written by Peter Selinger 2001-2013
</metadata>
<g transform="translate(0.000000,512.000000) scale(0.100000,-0.100000)"
fill="#000000" stroke="none">
<path d="M2639 4943 c-25 -27 -104 -118 -177 -205 -178 -209 -196 -217 -358
-148 -102 44 -168 51 -227 26 -18 -7 -142 -89 -276 -182 -188 -130 -252 -179
-281 -218 -50 -68 -50 -66 -141 -309 -45 -116 -87 -223 -94 -237 -27 -52 -80
-87 -163 -106 -75 -17 -139 -59 -170 -109 -15 -23 -94 -176 -177 -339 -131
-258 -153 -296 -170 -292 -11 3 -54 17 -95 32 -60 22 -94 27 -168 28 -91 1
-94 0 -118 -27 -27 -32 -30 -66 -9 -106 18 -36 32 -42 132 -51 91 -9 130 -25
283 -115 136 -80 207 -100 355 -99 165 0 237 23 413 131 98 61 173 83 281 83
116 0 174 -19 303 -97 172 -105 323 -139 493 -113 106 16 159 37 290 115 134
80 182 95 300 95 118 0 166 -15 300 -95 136 -81 190 -101 305 -117 68 -9 111
-9 173 0 114 15 183 41 306 116 139 84 194 100 330 94 116 -6 156 -19 256 -82
131 -84 228 -121 349 -132 57 -5 79 -3 103 10 37 19 58 70 44 107 -17 47 -45
61 -137 70 -121 12 -264 81 -264 127 0 44 -165 643 -193 702 -23 47 -63 97
-148 186 -131 137 -159 188 -159 293 0 81 -16 157 -45 216 -27 53 -437 499
-481 523 -33 17 -71 5 -98 -32 -13 -17 -63 -107 -112 -200 -57 -108 -97 -172
-111 -179 -51 -23 -62 -11 -283 328 -117 179 -222 332 -233 340 -42 29 -80 19
-128 -32z m123 -290 c26 -29 316 -470 345 -526 10 -20 17 -56 17 -94 0 -52 -6
-73 -36 -131 -46 -87 -55 -130 -34 -170 24 -47 69 -55 122 -23 22 13 46 49 84
122 159 311 275 527 298 552 17 18 36 27 56 27 26 0 48 -17 145 -117 148 -153
171 -198 181 -357 9 -151 27 -185 178 -341 85 -87 126 -138 149 -185 33 -65
156 -507 146 -523 -2 -4 -49 -5 -102 -1 -174 12 -271 -13 -446 -116 -144 -85
-191 -100 -306 -100 -114 0 -180 21 -306 99 -115 70 -179 96 -285 112 -166 26
-325 -11 -492 -113 -122 -75 -192 -98 -296 -98 -115 0 -167 15 -271 76 -207
121 -308 151 -474 141 -116 -8 -199 -34 -305 -97 -175 -104 -202 -113 -325
-118 -98 -4 -117 -2 -163 18 -32 14 -52 29 -52 39 0 15 214 437 276 546 40 68
102 110 159 108 63 -2 124 -33 256 -129 132 -95 179 -119 218 -109 43 11 61
34 61 78 0 34 -7 46 -42 81 -24 22 -82 69 -130 103 -149 107 -152 133 -44 416
76 198 105 252 167 315 44 45 355 256 398 270 62 22 111 14 213 -32 122 -55
138 -59 190 -45 55 13 65 22 172 149 150 177 175 200 216 200 27 0 43 -7 62
-27z"/>
<path d="M155 2263 c-56 -14 -87 -81 -61 -131 18 -36 50 -49 139 -57 85 -7
126 -23 251 -98 92 -56 209 -106 248 -107 30 0 80 -74 194 -282 120 -220 151
-256 237 -279 144 -38 167 -57 316 -268 201 -282 456 -587 515 -615 49 -23
105 -20 172 11 70 32 137 34 183 7 17 -10 81 -78 142 -150 173 -205 178 -205
476 -68 218 101 283 141 331 202 16 20 94 152 172 292 171 306 196 341 338
492 61 65 124 137 140 160 39 56 314 579 337 640 25 67 34 72 113 64 76 -8
138 -34 257 -107 110 -67 205 -99 315 -106 l89 -6 30 31 c39 38 41 79 6 120
-22 27 -33 30 -102 37 -98 9 -148 28 -276 104 -121 72 -190 97 -301 111 -157
19 -304 -14 -448 -102 -168 -103 -258 -127 -396 -108 -83 11 -129 31 -272 115
-108 63 -162 82 -275 95 -165 20 -305 -16 -474 -119 -127 -78 -182 -95 -301
-94 -117 1 -173 19 -301 98 -115 71 -194 101 -301 115 -181 23 -309 -11 -508
-134 -95 -59 -163 -79 -270 -79 -113 -1 -171 18 -305 98 -123 73 -196 101
-305 115 -41 5 -77 9 -80 9 -3 -1 -14 -3 -25 -6z m1530 -198 c33 -9 94 -36
135 -61 201 -120 298 -149 470 -141 131 6 209 30 321 98 164 99 221 119 342
119 91 0 171 -24 262 -79 196 -119 291 -147 464 -139 125 6 217 34 318 98 36
22 68 39 70 36 7 -7 -222 -439 -270 -511 -23 -33 -86 -107 -142 -165 -131
-136 -165 -186 -329 -480 -172 -308 -197 -336 -391 -424 -140 -64 -193 -73
-251 -43 -16 8 -79 73 -139 143 -61 71 -125 139 -144 151 -46 31 -113 31 -183
-2 -70 -33 -142 -34 -189 -2 -58 39 -233 252 -405 494 -91 128 -182 247 -202
263 -21 17 -62 38 -92 46 -78 22 -137 53 -164 85 -25 29 -180 309 -174 313 1
2 35 13 73 24 39 12 106 42 150 68 44 26 98 57 120 70 90 52 236 68 350 39z"/>
</g>
</svg>
